<?xml version="1.0" encoding="utf-8"?>
<!-- Generator: Adobe Illustrator 19.2.1, SVG Export Plug-In . SVG Version: 6.00 Build 0)  -->
<svg version="1.1" id="layer" xmlns="http://www.w3.org/2000/svg" xmlns:xlink="http://www.w3.org/1999/xlink" x="0px" y="0px"
	 viewBox="0 250 652 150" style="enable-background:new 0 0 652 652;" xml:space="preserve">
<style type="text/css">
	.st0{fill:#0066B3;}
</style>
<path class="st0" d="M72,296.3c2.7-0.6,5.5,1.1,6.1,3.8c0.2,0.8,0.2,1.5,0,2.3c0.3,3-1.8,5.7-4.9,6.1c-0.2,0-0.4,0-0.6,0h-9.5v-12.2
	H72z M72.6,379.2c25.1,0,39.4-10.2,39.4-32.6c0.8-11.9-5.6-23.1-16.3-28.5c8.5-5.1,13.5-14.5,12.9-24.5c0-18.3-12.2-29.2-30.6-29.2
	H30.5L21,299.1h8.8v79.5h42.8V379.2z M72,331.7c3.3-0.5,6.4,1.7,6.9,5c0.1,0.8,0.1,1.6-0.1,2.4c0.5,3.2-1.7,6.2-5,6.7
	c-0.4,0.1-0.8,0.1-1.2,0.1h-9.5v-14.3H72z"/>
<path class="st0" d="M154.2,264.4v114.8h-33.3v-80.2h-8.8l9.5-34.7C121.6,264.4,154.2,264.4,154.2,264.4z"/>
<path class="st0" d="M200.4,328.3v51h-33.3v-80.2h-8.8l9.5-34.7h32.6l25.1,42.8v-42.8h33.3v114.8h-28.5L200.4,328.3z"/>
<path class="st0" d="M326.1,306.5h48.2c0,25.1-2,38.1-12.2,52.3c-10.1,13.5-25.9,21.5-42.8,21.7c-31.4-1.4-55.9-27.7-55-59.1
	c-0.9-30.9,23.4-56.8,54.4-57.8c4.5-0.1,9.1,0.2,13.6,0.7l4.8-3.4l24.5,16.3l-23.8,27.9c-5-4.1-11.2-6.5-17.7-6.8
	c-12.2,0.5-21.6,10.9-21.1,23.1c0,0,0,0,0,0c-0.2,12.6,9.8,22.9,22.4,23.1c0,0,0,0,0,0c6.4-0.1,12.5-2.8,17-7.5h-17.7L326.1,306.5z"
	/>
<path class="st0" d="M442.3,343.9h22.4l-9.5,35.3H409v-80.2h-8.8l9.5-34.7h32.6V343.9z"/>
<path class="st0" d="M528.6,379.2h-61.8v-80.2h-8.8l9.5-34.7h38.7l0.7-2.7h32.6l-10.9,38.1h-29.2v7.5h37.4l-7.5,27.9h-29.9v8.2h39.4
	L528.6,379.2z"/>
<path class="st0" d="M610.1,379.2h-61.8v-80.2h-8.8l9.5-34.7h38.7l0.7-2.7H621l-10.9,38.1h-29.2v7.5h37.4l-7.5,27.9h-29.9v8.2h39.4
	L610.1,379.2z"/>
</svg>
